<svg width="50" height="50" viewBox="0 0 50 50" fill="none" xmlns="http://www.w3.org/2000/svg">
<rect width="50" height="50" rx="7" fill="#E23030"/>
<path d="M23.122 30.416V19.504H17.842L17.776 21.748C17.732 22.7013 17.666 23.6033 17.578 24.454C17.5047 25.3047 17.3873 26.082 17.226 26.786C17.0647 27.4753 16.852 28.062 16.588 28.546C16.3387 29.03 16.0233 29.3747 15.642 29.58L11.836 29.096C12.364 29.1107 12.7967 28.9273 13.134 28.546C13.486 28.1647 13.7647 27.6293 13.97 26.94C14.1753 26.236 14.322 25.4147 14.41 24.476C14.5127 23.5373 14.586 22.518 14.63 21.418L14.806 16.6H26.642V30.416H23.122ZM11.33 35.19L11.352 29.096H28.798V35.19H25.498V32H14.63V35.19H11.33Z" fill="black"/>
<path d="M33.88 32L29.084 24.586L31.966 22.848L37.928 32H33.88ZM23.87 32V16.6H27.412V32H23.87ZM26.378 25.796V22.826H31.746V25.796H26.378ZM32.296 24.696L29.018 24.3L34.012 16.6H37.774L32.296 24.696Z" fill="black"/>
</svg>
