<svg width="25" height="21" viewBox="0 0 25 21" fill="none" xmlns="http://www.w3.org/2000/svg">
<path d="M2.5 20.25C1.8125 20.25 1.22417 20.0054 0.735 19.5163C0.245 19.0263 0 18.4375 0 17.75V2.75C0 2.0625 0.245 1.47417 0.735 0.985C1.22417 0.495 1.8125 0.25 2.5 0.25H22.5C23.1875 0.25 23.7763 0.495 24.2663 0.985C24.7554 1.47417 25 2.0625 25 2.75V17.75C25 18.4375 24.7554 19.0263 24.2663 19.5163C23.7763 20.0054 23.1875 20.25 22.5 20.25H2.5ZM12.5 11.5L2.5 5.25V17.75H22.5V5.25L12.5 11.5ZM12.5 9L22.5 2.75H2.5L12.5 9ZM2.5 5.25V2.75V17.75V5.25Z" fill="#EAEAEA"/>
</svg>
