<svg width="23" height="23" viewBox="0 0 23 23" fill="none" xmlns="http://www.w3.org/2000/svg">
<path d="M4.775 9.7375C6.575 13.275 9.475 16.1625 13.0125 17.975L15.7625 15.225C16.1 14.8875 16.6 14.775 17.0375 14.925C18.4375 15.3875 19.95 15.6375 21.5 15.6375C22.1875 15.6375 22.75 16.2 22.75 16.8875V21.25C22.75 21.9375 22.1875 22.5 21.5 22.5C9.7625 22.5 0.25 12.9875 0.25 1.25C0.25 0.5625 0.8125 0 1.5 0H5.875C6.5625 0 7.125 0.5625 7.125 1.25C7.125 2.8125 7.375 4.3125 7.8375 5.7125C7.975 6.15 7.875 6.6375 7.525 6.9875L4.775 9.7375Z" fill="#EAEAEA"/>
</svg>
